<svg width="116" height="116" viewBox="0 0 116 116" fill="none" xmlns="http://www.w3.org/2000/svg">
<g clip-path="url(#clip0_53_2)">
<path d="M101.089 60.3261C96.9549 53.3592 91.2085 46.151 84.0099 38.902C80.2225 35.0883 76.4542 31.6825 73.0437 28.7877C77.4204 28.3808 80.8582 24.6892 80.8582 20.2079C80.8582 15.4557 76.9918 11.5896 72.2399 11.5896C70.8015 11.5896 68.69 12.3058 66.4813 13.2806L73.9091 3.84854C74.4723 3.13292 74.5778 2.15875 74.1802 1.33941C73.7825 0.52037 72.9516 0 72.0413 0H43.9583C43.0477 0 42.2171 0.520073 41.8195 1.33941C41.4218 2.15875 41.5273 3.13292 42.0905 3.84854L49.5183 13.2806C47.3097 12.3055 45.1982 11.5896 43.7595 11.5896C39.0072 11.5896 35.1411 15.4557 35.1411 20.2079C35.1411 24.461 38.2384 28.0019 42.2956 28.6994C39.0667 31.3402 35.548 34.4226 32.013 37.8863C24.8006 44.9527 19.0436 52.1315 14.9017 59.2235C9.64272 68.2285 6.97638 77.1321 6.97638 85.6872C6.97638 92.6288 10.2769 100.276 15.8054 106.143C21.7955 112.499 29.4251 116 37.2892 116H78.7105C86.6967 116 94.3174 112.687 100.168 106.671C105.796 100.885 109.023 93.2369 109.023 85.6872C109.023 77.7301 106.354 69.1973 101.089 60.3261ZM76.1033 20.2082C76.1033 22.3385 74.3707 24.0716 72.2399 24.0716C70.9367 24.0716 67.1105 22.3019 63.3104 20.2079C67.1093 18.114 70.9343 16.3448 72.2399 16.3448C74.3707 16.3448 76.1033 18.078 76.1033 20.2082ZM67.1432 4.75555L58 16.3654L48.8571 4.75555H67.1432ZM39.8964 20.2082C39.8964 18.078 41.6296 16.3448 43.7598 16.3448C45.0632 16.3448 48.8892 18.1146 52.6896 20.2085C48.8904 22.3025 45.065 24.0716 43.7598 24.0716C41.6296 24.0716 39.8964 22.3385 39.8964 20.2082ZM78.7105 111.245H37.2895C23.1319 111.245 11.7316 97.2634 11.7316 85.6872C11.7316 68.1316 24.5343 51.8854 35.2746 41.3479C42.2742 34.4805 49.335 29.078 53.9627 25.7932L48.2571 46.1132C47.9022 47.3774 48.639 48.6898 49.9035 49.0449C50.1183 49.1053 50.3347 49.1341 50.5475 49.1341C51.5861 49.1341 52.5407 48.4479 52.8352 47.3988L58.0006 29.0031L63.1659 47.3988C63.4601 48.4482 64.415 49.1341 65.4534 49.1341C65.6664 49.1341 65.8822 49.1053 66.0977 49.0449C67.3619 48.6901 68.0983 47.3774 67.7438 46.1132L62.1392 26.1522C74.6417 35.6687 104.269 60.8432 104.269 85.6869C104.268 99.3024 92.3254 111.245 78.7105 111.245Z" fill="white" stroke="white"/>
</g>
<defs>
<clipPath id="clip0_53_2">
<rect width="116" height="116" fill="white"/>
</clipPath>
</defs>
</svg>